<svg width="81" height="81" viewBox="0 0 81 81" fill="none" xmlns="http://www.w3.org/2000/svg">
<path fill-rule="evenodd" clip-rule="evenodd" d="M40.6617 1.2116C62.2692 1.2116 79.7856 18.7282 79.7856 40.336C79.7856 61.9432 62.2692 79.4597 40.6617 79.4597C19.054 79.4597 1.53754 61.9432 1.53754 40.336C1.53754 18.7282 19.054 1.2116 40.6617 1.2116Z" fill="white"/>
<path fill-rule="evenodd" clip-rule="evenodd" d="M40.6617 1.2116C62.2692 1.2116 79.7856 18.7282 79.7856 40.336C79.7856 61.9432 62.2692 79.4597 40.6617 79.4597C19.054 79.4597 1.53754 61.9432 1.53754 40.336C1.53754 18.7282 19.054 1.2116 40.6617 1.2116Z" fill="#E1E1E1"/>
<path d="M47 35V31H43C40.7909 31 39 32.7909 39 35V39H35V43H39V53H43V43H47V39H43V35H47Z" fill="white"/>
</svg>
