<svg width="81" height="81" viewBox="0 0 81 81" fill="none" xmlns="http://www.w3.org/2000/svg">
<path fill-rule="evenodd" clip-rule="evenodd" d="M40.6616 1.2116C62.2692 1.2116 79.7856 18.7282 79.7856 40.336C79.7856 61.9432 62.2692 79.4597 40.6616 79.4597C19.0541 79.4597 1.53754 61.9432 1.53754 40.336C1.53754 18.7282 19.0541 1.2116 40.6616 1.2116Z" fill="white"/>
<path fill-rule="evenodd" clip-rule="evenodd" d="M40.6616 1.2116C62.2692 1.2116 79.7856 18.7282 79.7856 40.336C79.7856 61.9432 62.2692 79.4597 40.6616 79.4597C19.0541 79.4597 1.53754 61.9432 1.53754 40.336C1.53754 18.7282 19.0541 1.2116 40.6616 1.2116Z" fill="#E1E1E1"/>
<path d="M43.138 44.51C44.094 44.201 45.318 46.55 46.621 47.449C47.599 48.13 48.348 47.983 48.348 47.983L51.821 47.933C51.821 47.933 53.636 47.821 52.778 46.379C52.707 46.259 52.275 45.31 50.193 43.357C48.016 41.314 48.311 41.645 50.932 38.113C52.529 35.96 53.168 34.645 52.968 34.085C52.776 33.546 51.603 33.686 51.603 33.686L47.69 33.713C47.309 33.714 46.986 33.832 46.839 34.228C46.836 34.232 46.218 35.894 45.394 37.307C43.653 40.296 42.958 40.455 42.67 40.268C42.009 39.835 42.176 38.531 42.176 37.604C42.176 34.707 42.608 33.499 41.33 33.187C40.903 33.083 40.591 33.015 39.502 33.005C38.11 32.984 36.928 33.005 36.258 33.334C35.813 33.557 35.472 34.046 35.679 34.074C35.939 34.109 36.522 34.234 36.834 34.66C37.235 35.212 37.223 36.449 37.223 36.449C37.223 36.449 37.452 39.86 36.683 40.283C36.155 40.573 35.433 39.981 33.88 37.267C33.087 35.879 32.488 34.345 32.488 34.345C32.488 34.345 32.372 34.06 32.162 33.904C31.912 33.719 31.562 33.66 31.562 33.66L27.848 33.684C27.848 33.684 27.29 33.7 27.085 33.946C26.903 34.164 27.07 34.614 27.07 34.614C27.07 34.614 29.979 41.495 33.273 44.961C36.293 48.143 39.725 47.932 39.725 47.932H41.28C41.28 47.932 41.749 47.878 41.989 47.62C42.213 47.38 42.203 46.929 42.203 46.929C42.203 46.929 42.172 44.82 43.138 44.51Z" fill="white"/>
</svg>
